<mxfile host="app.diagrams.net" agent="Mozilla/5.0 (Windows NT 10.0; Win64; x64) AppleWebKit/537.36 (KHTML, like Gecko) Chrome/139.0.0.0 Safari/537.36 Edg/139.0.0.0" version="28.1.1">
  <diagram name="Page-1" id="yUFhR7S62u66BqIkfE4X">
    <mxGraphModel dx="1034" dy="1670" grid="1" gridSize="10" guides="1" tooltips="1" connect="1" arrows="1" fold="1" page="1" pageScale="1" pageWidth="850" pageHeight="1100" math="0" shadow="0">
      <root>
        <mxCell id="0" />
        <mxCell id="1" parent="0" />
        <mxCell id="k5nQ3LAk7Kp0NQHiktJk-6" value="" style="edgeStyle=orthogonalEdgeStyle;rounded=0;orthogonalLoop=1;jettySize=auto;html=1;" edge="1" parent="1" source="k5nQ3LAk7Kp0NQHiktJk-1" target="k5nQ3LAk7Kp0NQHiktJk-3">
          <mxGeometry relative="1" as="geometry" />
        </mxCell>
        <mxCell id="k5nQ3LAk7Kp0NQHiktJk-1" value="start" style="ellipse;whiteSpace=wrap;html=1;" vertex="1" parent="1">
          <mxGeometry x="320" y="-1050" width="120" height="80" as="geometry" />
        </mxCell>
        <mxCell id="k5nQ3LAk7Kp0NQHiktJk-2" value="" style="endArrow=none;html=1;rounded=0;" edge="1" parent="1">
          <mxGeometry width="50" height="50" relative="1" as="geometry">
            <mxPoint x="400" y="100" as="sourcePoint" />
            <mxPoint x="400" y="100" as="targetPoint" />
            <Array as="points">
              <mxPoint x="400" y="70" />
            </Array>
          </mxGeometry>
        </mxCell>
        <mxCell id="k5nQ3LAk7Kp0NQHiktJk-3" value="planning" style="rounded=0;whiteSpace=wrap;html=1;" vertex="1" parent="1">
          <mxGeometry x="320" y="-910" width="120" height="60" as="geometry" />
        </mxCell>
        <mxCell id="k5nQ3LAk7Kp0NQHiktJk-14" value="" style="edgeStyle=orthogonalEdgeStyle;rounded=0;orthogonalLoop=1;jettySize=auto;html=1;" edge="1" parent="1" source="k5nQ3LAk7Kp0NQHiktJk-4" target="k5nQ3LAk7Kp0NQHiktJk-13">
          <mxGeometry relative="1" as="geometry" />
        </mxCell>
        <mxCell id="k5nQ3LAk7Kp0NQHiktJk-16" value="" style="edgeStyle=orthogonalEdgeStyle;rounded=0;orthogonalLoop=1;jettySize=auto;html=1;" edge="1" parent="1" source="k5nQ3LAk7Kp0NQHiktJk-13" target="k5nQ3LAk7Kp0NQHiktJk-15">
          <mxGeometry relative="1" as="geometry" />
        </mxCell>
        <mxCell id="k5nQ3LAk7Kp0NQHiktJk-18" value="" style="edgeStyle=orthogonalEdgeStyle;rounded=0;orthogonalLoop=1;jettySize=auto;html=1;" edge="1" parent="1" source="k5nQ3LAk7Kp0NQHiktJk-15" target="k5nQ3LAk7Kp0NQHiktJk-17">
          <mxGeometry relative="1" as="geometry" />
        </mxCell>
        <mxCell id="k5nQ3LAk7Kp0NQHiktJk-20" value="" style="edgeStyle=orthogonalEdgeStyle;rounded=0;orthogonalLoop=1;jettySize=auto;html=1;" edge="1" parent="1" source="k5nQ3LAk7Kp0NQHiktJk-17" target="k5nQ3LAk7Kp0NQHiktJk-19">
          <mxGeometry relative="1" as="geometry" />
        </mxCell>
        <mxCell id="k5nQ3LAk7Kp0NQHiktJk-17" value="release" style="rounded=0;whiteSpace=wrap;html=1;" vertex="1" parent="1">
          <mxGeometry x="320" y="-480" width="120" height="60" as="geometry" />
        </mxCell>
        <mxCell id="k5nQ3LAk7Kp0NQHiktJk-22" value="" style="edgeStyle=orthogonalEdgeStyle;rounded=0;orthogonalLoop=1;jettySize=auto;html=1;" edge="1" parent="1" source="k5nQ3LAk7Kp0NQHiktJk-19" target="k5nQ3LAk7Kp0NQHiktJk-21">
          <mxGeometry relative="1" as="geometry" />
        </mxCell>
        <mxCell id="k5nQ3LAk7Kp0NQHiktJk-19" value="deploy" style="rounded=0;whiteSpace=wrap;html=1;" vertex="1" parent="1">
          <mxGeometry x="320" y="-370" width="120" height="60" as="geometry" />
        </mxCell>
        <mxCell id="k5nQ3LAk7Kp0NQHiktJk-24" value="" style="edgeStyle=orthogonalEdgeStyle;rounded=0;orthogonalLoop=1;jettySize=auto;html=1;" edge="1" parent="1" source="k5nQ3LAk7Kp0NQHiktJk-21" target="k5nQ3LAk7Kp0NQHiktJk-23">
          <mxGeometry relative="1" as="geometry" />
        </mxCell>
        <mxCell id="k5nQ3LAk7Kp0NQHiktJk-21" value="operate" style="rounded=0;whiteSpace=wrap;html=1;" vertex="1" parent="1">
          <mxGeometry x="320" y="-270" width="120" height="60" as="geometry" />
        </mxCell>
        <mxCell id="k5nQ3LAk7Kp0NQHiktJk-27" value="" style="edgeStyle=orthogonalEdgeStyle;rounded=0;orthogonalLoop=1;jettySize=auto;html=1;" edge="1" parent="1" source="k5nQ3LAk7Kp0NQHiktJk-23" target="k5nQ3LAk7Kp0NQHiktJk-26">
          <mxGeometry relative="1" as="geometry" />
        </mxCell>
        <mxCell id="k5nQ3LAk7Kp0NQHiktJk-23" value="Deploy" style="rounded=0;whiteSpace=wrap;html=1;" vertex="1" parent="1">
          <mxGeometry x="320" y="-170" width="120" height="60" as="geometry" />
        </mxCell>
        <mxCell id="k5nQ3LAk7Kp0NQHiktJk-29" value="" style="edgeStyle=orthogonalEdgeStyle;rounded=0;orthogonalLoop=1;jettySize=auto;html=1;" edge="1" parent="1" source="k5nQ3LAk7Kp0NQHiktJk-26" target="k5nQ3LAk7Kp0NQHiktJk-28">
          <mxGeometry relative="1" as="geometry" />
        </mxCell>
        <mxCell id="k5nQ3LAk7Kp0NQHiktJk-26" value="monitor" style="rounded=0;whiteSpace=wrap;html=1;" vertex="1" parent="1">
          <mxGeometry x="320" y="-50" width="120" height="60" as="geometry" />
        </mxCell>
        <mxCell id="k5nQ3LAk7Kp0NQHiktJk-28" value="stop" style="ellipse;whiteSpace=wrap;html=1;" vertex="1" parent="1">
          <mxGeometry x="320" y="60" width="120" height="80" as="geometry" />
        </mxCell>
        <mxCell id="k5nQ3LAk7Kp0NQHiktJk-30" value="" style="edgeStyle=orthogonalEdgeStyle;rounded=0;orthogonalLoop=1;jettySize=auto;html=1;exitX=0.5;exitY=1;exitDx=0;exitDy=0;" edge="1" parent="1" source="k5nQ3LAk7Kp0NQHiktJk-3" target="k5nQ3LAk7Kp0NQHiktJk-4">
          <mxGeometry relative="1" as="geometry">
            <mxPoint x="400" y="190" as="targetPoint" />
            <mxPoint x="425" y="-200" as="sourcePoint" />
          </mxGeometry>
        </mxCell>
        <mxCell id="k5nQ3LAk7Kp0NQHiktJk-4" value="develop" style="rounded=0;whiteSpace=wrap;html=1;" vertex="1" parent="1">
          <mxGeometry x="320" y="-800" width="120" height="60" as="geometry" />
        </mxCell>
        <mxCell id="k5nQ3LAk7Kp0NQHiktJk-31" value="" style="edgeStyle=orthogonalEdgeStyle;rounded=0;orthogonalLoop=1;jettySize=auto;html=1;exitX=0.5;exitY=1;exitDx=0;exitDy=0;" edge="1" parent="1" source="k5nQ3LAk7Kp0NQHiktJk-4" target="k5nQ3LAk7Kp0NQHiktJk-13">
          <mxGeometry relative="1" as="geometry">
            <mxPoint x="400" y="190" as="targetPoint" />
            <mxPoint x="380" y="-740" as="sourcePoint" />
          </mxGeometry>
        </mxCell>
        <mxCell id="k5nQ3LAk7Kp0NQHiktJk-13" value="build" style="rounded=0;whiteSpace=wrap;html=1;" vertex="1" parent="1">
          <mxGeometry x="320" y="-690" width="120" height="60" as="geometry" />
        </mxCell>
        <mxCell id="k5nQ3LAk7Kp0NQHiktJk-32" value="" style="edgeStyle=orthogonalEdgeStyle;rounded=0;orthogonalLoop=1;jettySize=auto;html=1;exitX=0.5;exitY=1;exitDx=0;exitDy=0;" edge="1" parent="1" source="k5nQ3LAk7Kp0NQHiktJk-13" target="k5nQ3LAk7Kp0NQHiktJk-15">
          <mxGeometry relative="1" as="geometry">
            <mxPoint x="400" y="190" as="targetPoint" />
            <mxPoint x="380" y="-630" as="sourcePoint" />
          </mxGeometry>
        </mxCell>
        <mxCell id="k5nQ3LAk7Kp0NQHiktJk-15" value="test" style="rounded=0;whiteSpace=wrap;html=1;" vertex="1" parent="1">
          <mxGeometry x="320" y="-580" width="120" height="60" as="geometry" />
        </mxCell>
      </root>
    </mxGraphModel>
  </diagram>
</mxfile>
